<?xml version="1.0" encoding="UTF-8"?><svg id="Layer_1" xmlns="http://www.w3.org/2000/svg" viewBox="0 0 1477.54 320.48"><style>*{fill:#fff;stroke:#fff;}</style><path d="M583.06,277.98h38.48l-4.29,8.74h-36.42c-1.71.01-4.2,7.15-4.05,8.58h29.85c2.17.05,5.19,1.25,4.84,3.39-1.27,7.84-4.21,21.74-14.26,21.74l-42.5.04,4.66-8.9h36.77c1.34-1.62,2.58-5.87,3.78-9h-28.44c-3.69-.01-7.26-3.09-6.01-6.96,3.44-10.6,7.01-17.62,17.6-17.64ZM286.37,286.46l-11.26,25.45c-.63,1.43-1.1,4.62,1.24,6.84,1.8,1.71,3.84,1.69,5.26,1.69h37.74s4.18-9.57,4.18-9.57l-37.61-.1,10.84-23.44h37.35l4.42-9.26h-38.15c-5.43-.01-11.7,3.17-14.01,8.39ZM707.61,287.72h17.98l-14.71,32.72h10.26l14.62-32.72h18.81l4.08-9.64h-47.19l-3.83,9.64ZM456.58,310.66l-30.52-.05,14.76-32.54h-10.54l-13.6,29.7c-1.25,2.74-1.65,5.79-1.14,8.76.38,1.71,2.65,3.91,5.02,3.91h32.49c8.01.01,12.06-5.2,14.88-11.43l13.96-30.94h-10.9l-14.4,32.59ZM395.97,234.85c-1.22.1-2.42.19-3.64.29l-343.71-.05c-7.45.81-18.36-8.09-20.56-20.51-1.05-5.94-.43-13.44,3.28-18.96,0,0,40.7-60.67,73.27-109.12,21.66-32.22,39.78-59.04,39.78-59.04C155.09,12.04,178.96.55,207.13.03L570.86,0c4.64,0,7.01,1.71,8.92,5.53,1.7,3.42,1.41,7.88-.71,11.89-.33.62-.73,1.21-1.13,1.78l-121.98,181.11c-3.3,4.46-6.28,8.64-10,12.47-15.44,15.87-32.44,21.21-49.98,22.06ZM396.55,161.48l61.13-92.34c2.38-3.55-.8-9.52-5.02-9.52h-236.33c-5.84,0-14.41,2.7-17.66,7.46l-64.33,95.31c-1.03,1.51-1.07,5.36-.13,7.03.98,1.75,3.54,3.34,5.82,3.34l236.96-.02c8.64,0,15.35-4.96,19.56-11.26ZM210.51,304.15v-9.75L0,299.27l210.51,4.88ZM896.79,280.82c1.82,3.01,1.03,5.33.33,6.89l-9.32,20.91c-2.4,5.39-6.08,11.76-13.9,11.79l-31.96.02c-1.91,0-4.44.11-5.83-2.4-1.31-2.39-1.07-5.6-.34-7.28l9.92-22.76c2.82-6.46,7.96-9.93,15.22-9.93h30.48c1.63,0,3.75.05,5.38,2.75ZM886.84,287.7h-30.49s-10.17,22.87-10.17,22.87h30.7s9.95-22.87,9.95-22.87ZM1241.65,304.15l210.51-4.88-210.51-4.88v9.75ZM1357.98,171.89c20.21-17.74,39.31-35.42,56.42-56.52-25.36,12.59-51.12,19.01-78.91,18.73-19.18-.19-37.37,3.72-52.35,16.02-17.25,16.48-25.42,39.31-25.24,63.1.05,7.51-2.21,14.97-5.32,21.92,0,0,4.01-1.15,9.42-2.83,14.3-4.45,27.96-10.75,40.6-18.79,19.48-12.39,37.77-26.18,55.38-41.63ZM1475.88,5.4c-1.39-2.11-5.3-5.38-9.08-5.38l-358.14-.02c-22.92.01-46.98,11.31-60.95,28.68-13.72,17.07-23.82,34.71-35.92,52.84l-76.66,116.24c-5.9,8.83-5.64,20.45.99,27.88,5.37,6.02,12.89,9.47,21.34,9.5h283.55c4.32-5.97,7.1-13.41,7-20.83-.17-13.26,2.15-29.6,7.25-41.92h-208.57c-2.6-.04-5.44-1.51-6.53-3.78-1.05-2.19-.26-5.71.96-7.49h0s64.94-94.04,64.94-94.04c5.04-6.06,16.23-7.43,26.52-7.46h224.72c2.75.02,5.05,2.1,5.35,4.83.17,1.51-.2,3.04-1.05,4.3l-37.71,55.89c31.26,2.31,72.97-4.7,97.42-24.99l55.1-83.62c1.91-2.76,1.19-7.94-.53-10.63ZM1135.39,287.33h29.63l-38.94,21.33c-.11.23-3.51,7.49-5.52,11.78h47.69l4.72-9.87h-32.32l41.16-22.34,4.1-10.17h-47.03l-3.48,9.26ZM1006.91,306.28l-4.86-28.21h-11.97l-19.35,42.37h10.97l12.37-26.79,4.09,26.79h6.31l26.99-26.52-10.29,26.52h9.85l18.37-42.37h-12.64l-29.83,28.21ZM853.66,156.39h33.91c19.88-.36,39.88-9.85,51.16-26.63l60.87-90.54c5.26-7.83,8.45-16.21,5.53-25.67C1002.64,5.5,994.96,0,985.66,0h-357.08l-32.83,49.57c-1.17,1.76-1.8,3.86-1.6,5.96.04.38.44,4.09,4.54,4.09h291.07c2.7.01,5.48.33,6.49,2.8.63,1.54-.04,4.08-.82,5.22l-14.25,20.85c-3.59,5.26-8.57,7.82-15.4,7.82l-293.57-.04c-3.26,0-8.47,1.65-10.06,4.05l-82.94,126.99c-.79,1.2-1.16,4.72-.36,5.71.8.99,3.39,2.12,4.9,2.12h65.38c6.19.02,8.42-2.49,11.57-7.15l41.9-63.8c3.09-4.57,7.15-8.19,12.83-8.19h143.87l47.88,72.97c1.69,2.6,3.08,4.6,5.69,5.62,1.03.4,2.13.55,3.23.55h77.69c.81,0,1.6-.2,2.31-.58,1.34-.73,2.65-1.62,2.93-2.51.29-.91-.62-3.17-1.22-4.15l-44.17-71.51Z"/></svg>